<svg width="200" height="200" viewBox="0 0 200 200" xmlns="http://www.w3.org/2000/svg">
  <!-- Globe outline -->
  <circle cx="100" cy="100" r="80" fill="none" stroke="url(#gradient1)" stroke-width="3"/>
  
  <!-- Grid lines on globe -->
  <path d="M 20 100 Q 100 60 180 100" fill="none" stroke="url(#gradient1)" stroke-width="2"/>
  <path d="M 20 100 Q 100 140 180 100" fill="none" stroke="url(#gradient1)" stroke-width="2"/>
  <path d="M 100 20 Q 120 100 100 180" fill="none" stroke="url(#gradient1)" stroke-width="2"/>
  <path d="M 100 20 Q 80 100 100 180" fill="none" stroke="url(#gradient1)" stroke-width="2"/>
  
  <!-- People icons around globe -->
  <!-- Top person -->
  <circle cx="100" cy="30" r="8" fill="url(#gradient2)"/>
  <path d="M 92 45 Q 100 40 108 45 L 108 55 L 92 55 Z" fill="url(#gradient2)"/>
  
  <!-- Right person -->
  <circle cx="160" cy="70" r="8" fill="url(#gradient3)"/>
  <path d="M 152 85 Q 160 80 168 85 L 168 95 L 152 95 Z" fill="url(#gradient3)"/>
  
  <!-- Bottom right person -->
  <circle cx="150" cy="140" r="8" fill="url(#gradient2)"/>
  <path d="M 142 155 Q 150 150 158 155 L 158 165 L 142 165 Z" fill="url(#gradient2)"/>
  
  <!-- Bottom left person -->
  <circle cx="50" cy="140" r="8" fill="url(#gradient3)"/>
  <path d="M 42 155 Q 50 150 58 155 L 58 165 L 42 165 Z" fill="url(#gradient3)"/>
  
  <!-- Left person -->
  <circle cx="40" cy="70" r="8" fill="url(#gradient2)"/>
  <path d="M 32 85 Q 40 80 48 85 L 48 95 L 32 95 Z" fill="url(#gradient2)"/>
  
  <!-- Center calendar/checkmark element -->
  <rect x="85" y="85" width="30" height="30" rx="5" fill="url(#gradient4)"/>
  <path d="M 92 100 L 98 106 L 108 92" fill="none" stroke="#1a1a1a" stroke-width="3" stroke-linecap="round"/>
  
  <!-- Gradients -->
  <defs>
    <linearGradient id="gradient1" x1="0%" y1="0%" x2="100%" y2="100%">
      <stop offset="0%" style="stop-color:#3b82f6;stop-opacity:1" />
      <stop offset="100%" style="stop-color:#8b5cf6;stop-opacity:1" />
    </linearGradient>
    <linearGradient id="gradient2" x1="0%" y1="0%" x2="100%" y2="100%">
      <stop offset="0%" style="stop-color:#06b6d4;stop-opacity:1" />
      <stop offset="100%" style="stop-color:#3b82f6;stop-opacity:1" />
    </linearGradient>
    <linearGradient id="gradient3" x1="0%" y1="0%" x2="100%" y2="100%">
      <stop offset="0%" style="stop-color:#8b5cf6;stop-opacity:1" />
      <stop offset="100%" style="stop-color:#a855f7;stop-opacity:1" />
    </linearGradient>
    <linearGradient id="gradient4" x1="0%" y1="0%" x2="100%" y2="100%">
      <stop offset="0%" style="stop-color:#f59e0b;stop-opacity:1" />
      <stop offset="100%" style="stop-color:#f97316;stop-opacity:1" />
    </linearGradient>
  </defs>
</svg>
